<?xml version="1.0" encoding="utf-8"?>
<!-- Generator: Adobe Illustrator 23.0.5, SVG Export Plug-In . SVG Version: 6.00 Build 0)  -->
<svg version="1.1" id="Layer_1" xmlns="http://www.w3.org/2000/svg" xmlns:xlink="http://www.w3.org/1999/xlink" x="0px" y="0px"
	 viewBox="0 0 1080 1080" style="enable-background:new 0 0 1080 1080;" xml:space="preserve">
<style type="text/css">
	.st0{display:none;}
	.st1{display:inline;fill:#392061;}
	.st2{display:inline;fill:#F0F2A6;}
	.st3{display:none;fill:#392061;}
	.st4{fill:#392061;}
	.st5{fill:none;}
	.st6{fill:none;stroke:#392061;stroke-width:8;stroke-miterlimit:10;}
	.st7{fill:none;stroke:#392061;stroke-width:7;stroke-miterlimit:10;}
	.st8{fill:none;stroke:#392061;stroke-width:6;stroke-miterlimit:10;}
	.st9{fill:#F0F2A6;}
</style>
<g class="st0">
	<path class="st1" d="M0,0l1080,0L540,540h221.49c20.92,0,38.04,17.12,38.04,38.04v0c0,20.92-17.12,38.04-38.04,38.04H539.47
		c-48.38,0-94.77,19.22-128.98,53.42L0,1080L0,0z"/>
	<path class="st2" d="M410.5,669.5c34.21-34.21,80.6-53.42,128.97-53.42h222.02c10.46,0,19.97-4.28,26.87-11.18
		c7.18-7.18,11.53-17.21,11.15-28.19c-0.71-20.59-18.08-36.71-38.69-36.71H540H319.18c-20.61,0-37.97-16.12-38.69-36.71
		c-0.38-10.98,3.97-21.01,11.15-28.19c6.9-6.9,16.41-11.18,26.87-11.18h222.02c48.38,0,94.77-19.22,128.98-53.42L1080,0v1080H0
		L410.5,669.5z"/>
</g>
<rect class="st3" width="1089.47" height="1080"/>
<g class="st0">
	<path class="st1" d="M119.68,540c0,0-44.25,49.93-119.68,85.31v-18.03C58.94,578.9,93.41,540,93.41,540H119.68z"/>
	<path class="st1" d="M119.68,540H93.41c0,0-34.47-38.9-93.41-67.28v-18.03C75.43,490.07,119.68,540,119.68,540z"/>
</g>
<g class="st0">
	<path class="st1" d="M1080,454.69v18.03c-26.26-12.65-57.38-23.21-92.47-27.31l-27.21-23.77
		C1005.74,425.78,1046.03,438.76,1080,454.69z"/>
	<path class="st1" d="M1080,607.28v18.03c-33.97,15.93-74.26,28.91-119.68,33.05l27.21-23.77
		C1022.62,630.49,1053.74,619.93,1080,607.28z"/>
</g>
<g>
	<path d="M425.09,587.77C465.8,429.92,540,307.89,540,307.89s37.09,60.98,73.21,152.5c8.59-12.28,16.18-26.62,21.82-43.34
		C587.27,299.05,540,221.33,540,221.33S349.23,535.02,347.16,858.67l52.48-106.96c1.7-41.17,7.36-81.91,15.47-121.04
		c14.85,9.93,35.75,21.42,61.51,29.19c17.07,5.15,37.46,8.96,60.43,8.96c33.45,0,72.36-8.09,114.35-31.92
		c-2.83-14.15-5.97-28.1-9.38-41.79C533.53,663.88,449.08,607.37,425.09,587.77z"/>
	<path d="M655.33,469.85c-7.92,13.43-16.76,24.94-25.71,34.73c25.35,72.66,47.09,158.91,50.75,247.13l52.48,106.96
		C731.95,719.09,695.95,581.37,655.33,469.85z"/>
</g>
</svg>
