<?xml version="1.0" encoding="utf-8"?>
<!-- Generator: Adobe Illustrator 25.2.1, SVG Export Plug-In . SVG Version: 6.00 Build 0)  -->
<svg version="1.1" id="Layer_1" xmlns="http://www.w3.org/2000/svg" xmlns:xlink="http://www.w3.org/1999/xlink" x="0px" y="0px"
	 viewBox="0 0 1080 1080" style="enable-background:new 0 0 1080 1080;" xml:space="preserve">
<style type="text/css">
	.st0{display:none;}
	.st1{display:inline;fill:#392061;}
	.st2{display:inline;fill:#F0F2A6;}
	.st3{display:none;fill:#392061;}
	.st4{fill:#F0F2A6;}
	.st5{fill:none;}
	.st6{fill:none;stroke:#392061;stroke-width:8;stroke-miterlimit:10;}
	.st7{fill:#392061;}
	.st8{fill:none;stroke:#392061;stroke-width:7;stroke-miterlimit:10;}
	.st9{fill:none;stroke:#392061;stroke-width:6;stroke-miterlimit:10;}
	.st10{fill:#FFFFFF;}
</style>
<text transform="matrix(1 0 0 1 -717.062 1296.6732)" class="st4" style="font-family:'Arkhip-Regular'; font-size:43.7387px;">Inverse</text>
<g class="st0">
	<path class="st1" d="M0,0l1080,0L540,540h221.49c20.92,0,38.04,17.12,38.04,38.04v0c0,20.92-17.12,38.04-38.04,38.04H539.47
		c-48.38,0-94.77,19.22-128.98,53.42L0,1080L0,0z"/>
	<path class="st2" d="M410.5,669.5c34.21-34.21,80.6-53.42,128.97-53.42h222.02c10.46,0,19.97-4.28,26.87-11.18
		c7.18-7.18,11.53-17.21,11.15-28.19c-0.71-20.59-18.08-36.71-38.69-36.71H540H319.18c-20.61,0-37.97-16.12-38.69-36.71
		c-0.38-10.98,3.97-21.01,11.15-28.19c6.9-6.9,16.41-11.18,26.87-11.18h222.02c48.38,0,94.77-19.22,128.98-53.42L1080,0v1080H0
		L410.5,669.5z"/>
</g>
<rect class="st3" width="1089.47" height="1080"/>
<g>
	<path class="st4" d="M-465.42,623.47c32.38-125.55,91.4-222.61,91.4-222.61s29.5,48.5,58.23,121.29
		c6.83-9.77,12.87-21.17,17.35-34.47c-37.98-93.86-75.58-155.67-75.58-155.67s-151.74,249.5-153.38,506.93l41.74-85.07
		c1.35-32.75,5.85-65.15,12.3-96.27c11.81,7.89,28.43,17.04,48.92,23.21c13.58,4.1,29.8,7.13,48.06,7.13
		c26.61,0,57.55-6.44,90.95-25.39c-2.25-11.25-4.75-22.35-7.46-33.24C-379.16,684.01-446.34,639.06-465.42,623.47z"/>
	<path class="st4" d="M-282.29,529.68c-6.3,10.68-13.33,19.84-20.45,27.62c20.16,57.79,37.45,126.39,40.36,196.56l41.74,85.07
		C-221.35,727.92-249.98,618.38-282.29,529.68z"/>
</g>
<text transform="matrix(1 0 0 1 -278.6419 1166.5679)" class="st4" style="font-family:'Arkhip-Regular'; font-size:43.7387px;">Inverse</text>
<line class="st5" x1="-129.13" y1="-77.74" x2="-243" y2="-77.74"/>
<g class="st0">
	<path class="st1" d="M119.68,540c0,0-44.25,49.93-119.68,85.31v-18.03C58.94,578.9,93.41,540,93.41,540H119.68z"/>
	<path class="st1" d="M119.68,540H93.41c0,0-34.47-38.9-93.41-67.28v-18.03C75.43,490.07,119.68,540,119.68,540z"/>
</g>
<g class="st0">
	<path class="st1" d="M1080,454.69v18.03c-26.26-12.65-57.38-23.21-92.47-27.31l-27.21-23.77
		C1005.74,425.78,1046.03,438.76,1080,454.69z"/>
	<path class="st1" d="M1080,607.28v18.03c-33.97,15.93-74.26,28.91-119.68,33.05l27.21-23.77
		C1022.62,630.49,1053.74,619.93,1080,607.28z"/>
</g>
<g>
	<path class="st6" d="M-1802.8-149.36c32.38-125.55,91.4-222.61,91.4-222.61s29.5,48.5,58.23,121.29
		c6.83-9.77,12.87-21.17,17.35-34.47c-37.98-93.86-75.58-155.67-75.58-155.67s-151.74,249.5-153.38,506.93l41.74-85.07
		c1.35-32.75,5.85-65.15,12.3-96.27c11.81,7.89,28.43,17.04,48.92,23.21c13.58,4.1,29.8,7.13,48.06,7.13
		c26.61,0,57.55-6.44,90.95-25.39c-2.25-11.25-4.75-22.35-7.46-33.24C-1716.55-88.82-1783.72-133.77-1802.8-149.36z"/>
	<path class="st6" d="M-1619.67-243.15c-6.3,10.68-13.33,19.84-20.45,27.62c20.16,57.79,37.45,126.39,40.36,196.56l41.74,85.07
		C-1558.73-44.91-1587.36-154.45-1619.67-243.15z"/>
</g>
<text transform="matrix(1 0 0 1 -596.2422 987.8521)" class="st7" style="font-family:'Arkhip-Regular'; font-size:43.7387px;">Outline Version</text>
<g>
	<text transform="matrix(1 0 0 1 -186.065 -134.5036)" class="st7" style="font-family:'Arkhip-Regular'; font-size:136.2962px;">A + F= </text>
	<g>
		<path class="st7" d="M290.72-178.52c7.53-29.2,21.26-51.77,21.26-51.77s6.86,11.28,13.54,28.21c1.59-2.27,2.99-4.92,4.04-8.02
			c-8.83-21.83-17.58-36.2-17.58-36.2s-35.29,58.03-35.67,117.89l9.71-19.79c0.31-7.62,1.36-15.15,2.86-22.39
			c2.75,1.84,6.61,3.96,11.38,5.4c3.16,0.95,6.93,1.66,11.18,1.66c6.19,0,13.38-1.5,21.15-5.9c-0.52-2.62-1.1-5.2-1.74-7.73
			C310.78-164.44,295.16-174.89,290.72-178.52z"/>
		<path class="st7" d="M333.31-200.33c-1.47,2.48-3.1,4.61-4.76,6.42c4.69,13.44,8.71,29.39,9.39,45.71l9.71,19.79
			C347.49-154.22,340.83-179.7,333.31-200.33z"/>
	</g>
</g>
<text transform="matrix(1 0 0 1 -568.8879 1092.7996)" class="st7" style="font-family:'Arkhip-Regular'; font-size:43.7387px;">Inspiration</text>
<g>
	<path class="st8" d="M-1333.56,675.23c-1.49-0.97-2.9-1.81-4.24-2.75c-17.12-12.07-31.23-27.24-42.83-44.44
		c-9.46-14.02-17.44-29.04-25.85-43.75c-4.76-8.32-4.55-8.48-13.46-5.41c-5.15,1.78-10.21,3.79-15.4,5.43
		c-1.08,0.34-3.01-0.06-3.73-0.85c-9.14-10.02-12.3-22.04-11.4-35.33c0.18-2.61,1.22-4.21,4.22-4.63c6.46-0.9,12.87-2.19,19.6-3.38
		c-8.4-28.74-16.68-57.1-24.97-85.45c0.45-0.21,0.9-0.42,1.35-0.62c7.31,9.51,13.14,20.3,22.92,28.04
		c-1.2-22.23-2.36-43.86-3.52-65.5c-12.45-2.6-25.77-5.38-39.09-8.16c0-0.5,0.01-1,0.01-1.5c3.69-1.01,7.37-2.07,11.08-3.02
		c41.01-10.53,81.26-23.31,119.67-41.35c13.01-6.11,25.77-12.73,37.06-21.78c3.05-2.44,5.85-5.19,9.26-8.23
		c0.62,6.9-1.21,12.79-2.85,18.66c-0.87,3.08-2.31,5.99-3.38,9.02c-0.31,0.87-0.22,1.88-0.32,2.82c1.04,0.1,2.17,0.5,3.12,0.26
		c36.8-9.52,72.76-21.1,104.52-42.9c0.29-0.2,0.66-0.3,2.14-0.94c-1.85,2.96-3.05,5.12-4.47,7.13
		c-11.51,16.26-25.82,29.63-42.23,40.84c-28.31,19.32-59.8,31.16-92.81,39.33c-9.35,2.31-18.77,4.34-28.22,6.17
		c-2.54,0.49-3.43,1.62-4.12,3.84c-5.31,16.92-8.3,34.27-10.23,51.88c-2.18,19.88-2.5,39.76-1.49,59.69
		c0.01,0.23,0.15,0.46,0.5,1.52c25.79-3.98,50.95-11.52,76.93-16.41c-3.52,2.79-7.01,5.62-10.57,8.36
		c-15.9,12.23-33.76,21.11-51.59,30.05c-2.76,1.39-5.41,3.02-8.22,4.31c-3.29,1.51-4.03,3.95-3.42,7.27
		c6.83,36.89,17.28,72.6,34.5,106.12c0.73,1.42,1.33,2.92,1.95,4.4C-1333.06,674.11-1333.27,674.39-1333.56,675.23z"/>
	<rect x="-1130.39" y="267.38" class="st7" width="35" height="459.94"/>
	<g>
		<path class="st9" d="M-960.13,524.01c22.72-88.11,64.14-156.23,64.14-156.23s20.71,34.04,40.87,85.13
			c4.8-6.86,9.03-14.86,12.18-24.19c-26.66-65.87-53.04-109.26-53.04-109.26s-106.49,175.11-107.65,355.77l29.3-59.71
			c0.95-22.98,4.11-45.72,8.63-67.56c8.29,5.54,19.95,11.96,34.34,16.29c9.53,2.88,20.91,5,33.73,5c18.67,0,40.39-4.52,63.83-17.82
			c-1.58-7.9-3.33-15.68-5.24-23.33C-899.59,566.5-946.74,534.95-960.13,524.01z"/>
		<path class="st9" d="M-831.61,458.19c-4.42,7.5-9.35,13.92-14.35,19.39c14.15,40.56,26.29,88.7,28.33,137.95l29.3,59.71
			C-788.83,597.31-808.93,520.44-831.61,458.19z"/>
	</g>
</g>
<text transform="matrix(1 0 0 1 -952.7933 1146.9258)" class="st7" style="font-family:'Arkhip-Regular'; font-size:43.7387px;">Before And After</text>
<g>
	<text transform="matrix(1 0 0 1 -918.7178 896.5255)" class="st7" style="font-family:'Arkhip-Regular'; font-size:43.7387px;">#F0F2A6</text>
	<text transform="matrix(1 0 0 1 -1032.7177 972.5465)" class="st4" style="font-family:'Arkhip-Regular'; font-size:43.7387px;">#392061</text>
</g>
<text transform="matrix(1 0 0 1 -285.4218 1367.9995)" class="st4" style="font-family:'Arkhip-Regular'; font-size:43.7387px;">Colors</text>
<g>
	<path class="st7" d="M-1485.95,1299.8c-2.85,19.31-4.82,38.95-5.63,58.72l-41.74,85.07c0.23-36.76,3.53-73.36,9.01-109.09
		l14.87-14.87C-1502.13,1312.32-1494.27,1305.7-1485.95,1299.8z"/>
	<path class="st7" d="M-1291.34,1267.2c-33.4,18.96-64.34,25.39-90.95,25.39c-18.26,0-34.49-3.02-48.06-7.12
		c-6.22-1.88-12.09-4.02-17.57-6.33c21.26-8.47,44.12-12.93,67.45-12.93h88.93C-1291.47,1266.54-1291.41,1266.87-1291.34,1267.2z"/>
	<path class="st4" d="M-1291.54,1266.21h-88.93c-23.33,0-46.19,4.46-67.45,12.93c-12.57-5.28-23.13-11.39-31.36-16.89
		c-2.55,12.33-4.8,24.87-6.67,37.55c-8.32,5.9-16.18,12.52-23.49,19.83l-14.87,14.87c7.74-50.51,19.84-99.3,33.82-144.37h29.97
		c-3.83,12.31-7.47,25-10.82,37.99c19.09,15.59,86.26,60.54,172.54,5.85C-1296.17,1244.53-1293.74,1255.3-1291.54,1266.21z"/>
	<path class="st7" d="M-1433.03,1114.05c-9.4,22.88-18.93,48.53-27.49,76.08h-29.97c8.32-26.82,17.3-52.32,26.43-76.08H-1433.03z"/>
	<path class="st7" d="M-1306.79,1098.97c-4.13,10.5-9.25,19.73-14.92,27.84c-2.67-6.77-5.35-13.33-8.02-19.66
		C-1321.9,1104.94-1314.24,1102.2-1306.79,1098.97z"/>
	<path class="st4" d="M-1304.36,1092.34c-0.76,2.26-1.57,4.47-2.43,6.63c-7.45,3.23-15.11,5.97-22.94,8.18
		c-25.94-61.73-50.21-101.63-50.21-101.63s-26.08,42.89-53.09,108.53h-31.03c40.65-105.91,84.12-177.38,84.12-177.38
		S-1342.34,998.48-1304.36,1092.34z"/>
	<path class="st7" d="M-1226.56,1443.59l-41.74-85.07c-1.3-31.36-5.47-62.4-11.49-92.31h31.04
		C-1235.65,1322.8-1226.94,1382.97-1226.56,1443.59z"/>
	<path class="st4" d="M-1248.75,1266.21h-31.04c-5.32-26.44-12.08-51.99-19.57-76.08h29.97
		C-1261.83,1214.51-1254.82,1239.98-1248.75,1266.21z"/>
	<path class="st7" d="M-1269.39,1190.13h-29.97c-3-9.64-6.11-19.04-9.3-28.17c7.12-7.79,14.15-16.95,20.45-27.63
		C-1281.73,1152.14-1275.39,1170.79-1269.39,1190.13z"/>
</g>
<text transform="matrix(1 0 0 1 -291.6176 1253.6946)" class="st7" style="font-family:'Arkhip-Regular'; font-size:43.7387px;">Color Mash</text>
<g>
	<text transform="matrix(1 0 0 1 -1106.084 -284.0529)"><tspan x="0" y="0" class="st7" style="font-family:'Arkhip-Regular'; font-size:87.21px;">Thanks </tspan><tspan x="0" y="85" class="st7" style="font-family:'Arkhip-Regular'; font-size:87.21px;">For </tspan><tspan x="0" y="170" class="st7" style="font-family:'Arkhip-Regular'; font-size:87.21px;">Scrolling!</tspan></text>
	<path class="st7" d="M-863.77-64.46c-0.02,0.06-0.03,0.11-0.04,0.17h-0.01C-863.81-64.35-863.79-64.41-863.77-64.46z"/>
	<g>
		<path class="st7" d="M-861.23-393.46c-2.1,5.61-4.13,11.73-5.89,18.19h-238.31v-18.19H-861.23z"/>
		<path class="st7" d="M-585.84-393.46v18.19h-238.3c-0.08-0.3-0.16-0.59-0.25-0.88c-1.52-5.5-3.24-10.75-5.02-15.63
			c-0.21-0.57-0.41-1.13-0.62-1.68H-585.84z"/>
		<g>
			<path class="st7" d="M-858.92-376.4c4.71-18.25,13.28-32.35,13.28-32.35s4.29,7.05,8.46,17.63c0.99-1.42,1.87-3.08,2.52-5.01
				c-5.52-13.64-10.98-22.62-10.98-22.62s-22.05,36.26-22.29,73.67l6.07-12.36c0.2-4.76,0.85-9.47,1.79-13.99
				c1.72,1.15,4.13,2.48,7.11,3.37c1.97,0.6,4.33,1.04,6.98,1.04c3.87,0,8.36-0.94,13.22-3.69c-0.33-1.64-0.69-3.25-1.08-4.83
				C-846.38-367.6-856.14-374.13-858.92-376.4z"/>
			<path class="st7" d="M-832.3-390.03c-0.92,1.55-1.94,2.88-2.97,4.01c2.93,8.4,5.44,18.37,5.87,28.57l6.07,12.36
				C-823.44-361.22-827.61-377.14-832.3-390.03z"/>
		</g>
	</g>
	<g>
		<path class="st7" d="M-837.15-82.48c-0.07,0.12-0.15,0.23-0.23,0.34c-0.05-0.12-0.09-0.23-0.14-0.34H-837.15z"/>
	</g>
	<g>
		<path class="st7" d="M-863.77-64.46c-0.02,0.06-0.03,0.11-0.04,0.17h-0.01C-863.81-64.35-863.79-64.41-863.77-64.46z"/>
	</g>
	<rect x="-1105.43" y="-87.95" class="st7" width="519.59" height="18.19"/>
	<text transform="matrix(1 0 0 1 -950.9954 -13.6885)" class="st7" style="font-family:'Arkhip-Regular'; font-size:40.3842px;">Feel Free To:</text>
	<g>
		<path class="st7" d="M-880.32,9.66L-880.32,9.66c-4.08-4.08-10.71-4.08-14.79,0l-2.31,2.31c-0.55,0.55-1.44,0.55-1.99,0
			l-2.27-2.27c-4.08-4.08-10.71-4.08-14.79,0l0,0c-4.08,4.08-4.08,10.71,0,14.79l17.06,17.06c0.55,0.55,1.44,0.55,1.99,0l17.1-17.1
			C-876.24,20.37-876.24,13.74-880.32,9.66z"/>
		<g>
			<path class="st7" d="M-822.53,4.63c-5.98,13.09-11.96,26.19-18.01,39.42c-2.18-4.39-4.3-8.65-6.43-12.93
				c7.75-8.44,15.48-16.85,23.21-25.27c-0.03-0.03-0.07-0.07-0.1-0.1c-0.22,0.2-0.44,0.4-0.66,0.61
				c-7.98,7.47-15.96,14.93-23.92,22.41c-0.38,0.35-0.66,0.39-1.12,0.18c-3.93-1.76-7.88-3.49-11.83-5.22
				c-0.19-0.08-0.37-0.17-0.66-0.31c13.21-6.34,26.3-12.63,39.4-18.91C-822.62,4.55-822.57,4.59-822.53,4.63z"/>
		</g>
		<g>
			<path class="st7" d="M-771.77,10.12c-0.18-2.17-2.06-3.91-4.27-3.91h-20.29c-0.29,0-0.54,0.04-0.8,0.07
				c-2.1,0.4-3.54,2.17-3.54,4.3v31.75c0.14-0.11,0.25-0.18,0.36-0.29c4.63-3.36,9.26-6.76,13.89-10.16c0.22-0.18,0.22-0.18,0.43,0
				c0.04,0.04,0.07,0.07,0.14,0.11c4.66,3.4,9.29,6.83,13.96,10.23c0.04,0.04,0.07,0.04,0.14,0.07V10.63
				C-771.73,10.49-771.73,10.31-771.77,10.12z M-774.62,36.63c-0.07-0.07-0.11-0.07-0.14-0.11c-3.76-2.75-7.52-5.5-11.28-8.28
				c-0.11-0.07-0.18-0.07-0.33,0c-3.33,2.46-6.65,4.92-10.02,7.34c-0.4,0.33-0.83,0.65-1.27,0.98c-0.04,0-0.07,0.04-0.11,0.07v-26
				c0-0.72,0.36-1.23,0.98-1.45c0.11-0.04,0.25-0.07,0.36-0.07h20.25c0.54,0,0.98,0.14,1.3,0.61c0.14,0.22,0.22,0.47,0.25,0.76
				V36.63z"/>
		</g>
	</g>
</g>
<g>
	<g>
		<path class="st4" d="M-772.16-775.58c0.49-76.39,11.28-158.56,32.06-244.25c16.61-68.48,39.62-139.36,68.38-210.65
			c49.15-121.84,98.35-203.07,98.84-203.87l4-6.57l4,6.57c0.49,0.8,49.3,81.41,98.2,202.24l0.65,1.61l-0.55,1.64
			c-5.54,16.43-13.3,31.85-23.07,45.82l-4.99,7.14l-3.2-8.1c-29.13-73.81-59.08-128.61-70.6-148.74l-0.43-0.76l-0.43,0.76
			c-17.44,30.52-77.1,140.64-112.53,276.13l-0.08,0.32l0.26,0.2c18.37,14.36,57.03,38.44,109.48,38.44
			c35.42,0,71.04-11.19,105.86-33.27l5.47-3.47l1.57,6.29c3.57,14.29,6.83,28.84,9.71,43.25l0.66,3.32l-2.94,1.67
			c-39.15,22.22-79.55,33.48-120.07,33.48c-21.48,0-42.87-3.17-63.58-9.43c-20.24-6.1-39.81-15.01-58.16-26.49l-0.61-0.38
			l-0.14,0.71c-7.98,40.24-12.8,79.42-14.33,116.46l-0.04,0.98l-63.49,129.4L-772.16-775.58z M-569.32-1421.94
			c-11.74,20.31-53.18,94.42-93.8,195.16c-42.22,104.7-93.7,263.93-99.21,427.95l-0.08,2.33l44.35-90.38l0-0.1
			c1.7-39.53,7.07-81.35,15.98-124.31l1.41-6.8l5.77,3.86c19.44,12.99,40.33,22.91,62.1,29.47c19.84,5.99,40.32,9.03,60.88,9.03
			c37.75,0,75.49-10.24,112.18-30.43l0.32-0.18l-0.07-0.36c-2.19-10.72-4.6-21.57-7.18-32.24l-0.16-0.66l-0.58,0.35
			c-34.48,20.61-69.72,31.06-104.75,31.06c0,0-0.01,0-0.01,0c-59.31,0-102.28-29.87-118-42.71l-2.32-1.89l0.75-2.9
			c41.58-161.23,118.1-288.23,118.87-289.49l4-6.57l4,6.57c0.36,0.59,36.39,60.25,72.06,148.52l0.37,0.92l0.52-0.84
			c6.43-10.44,11.76-21.69,15.86-33.43l0.06-0.18l-0.07-0.17c-39.1-96.31-77.62-166.05-92.36-191.56l-0.43-0.75L-569.32-1421.94z"/>
		<path d="M-568.89-1439.96l3.57,5.87c0.49,0.8,49.43,81.74,98.17,202.17l0.58,1.44l-0.49,1.47c-5.52,16.39-13.26,31.76-23,45.69
			l-4.46,6.37l-2.85-7.24c-29.14-73.85-59.11-128.66-70.64-148.8l-0.87-1.52l-0.87,1.52c-17.45,30.54-77.13,140.71-112.58,276.25
			l-0.17,0.64l0.52,0.4c18.42,14.4,57.18,38.55,109.79,38.55c35.52,0,71.22-11.22,106.13-33.35l4.89-3.1l1.4,5.62
			c3.57,14.29,6.83,28.83,9.71,43.23l0.59,2.96l-2.63,1.49c-39.07,22.18-79.39,33.42-119.82,33.42c-21.43,0-42.77-3.16-63.44-9.41
			c-20.2-6.09-39.72-14.98-58.04-26.43l-1.23-0.77l-0.28,1.42c-7.98,40.26-12.81,79.47-14.34,116.54l-0.04,0.88l-62.48,127.34
			l0.12-18.27c0.49-76.35,11.27-158.49,32.05-244.13c16.61-68.46,39.61-139.31,68.35-210.58c49.04-121.58,98.31-202.99,98.81-203.8
			L-568.89-1439.96 M-762.99-794.19l2.05-4.19l43.27-88.19l0.09-0.19l0.01-0.21c1.7-39.5,7.07-81.3,15.97-124.23l1.26-6.07
			l5.16,3.45c19.48,13.02,40.42,22.96,62.23,29.53c19.89,6.01,40.42,9.05,61.02,9.05c37.83,0,75.65-10.26,112.42-30.5l0.64-0.35
			l-0.15-0.72c-2.19-10.73-4.61-21.58-7.18-32.25l-0.32-1.32l-1.17,0.7c-34.4,20.57-69.56,30.99-104.5,30.99
			c-59.16,0-102.02-29.79-117.69-42.6l-2.07-1.69l0.67-2.59c41.6-161.31,118.05-288.09,118.81-289.36l3.57-5.87l3.57,5.87
			c0.36,0.59,36.36,60.18,72.02,148.45l0.74,1.84l1.04-1.69c6.44-10.47,11.8-21.75,15.91-33.53l0.12-0.36l-0.14-0.35
			c-39.12-96.34-77.65-166.1-92.4-191.62l-0.87-1.5l-0.87,1.5c-11.74,20.32-53.2,94.45-93.84,195.22
			c-42.23,104.74-93.73,264.03-99.25,428.12L-762.99-794.19 M-568.89-1441.88l-4.42,7.28c-0.49,0.81-49.9,82.53-98.88,203.95
			c-28.77,71.31-51.78,142.21-68.4,210.72c-20.8,85.72-31.59,167.93-32.08,244.36l-0.14,22.64l64.5-131.46l0.04-1.09
			c1.53-37.05,6.35-76.17,14.32-116.39c18.4,11.51,37.97,20.42,58.28,26.54c20.76,6.27,42.2,9.45,63.73,9.45
			c40.61,0,81.09-11.29,120.32-33.55l3.26-1.85l-0.73-3.67c-2.88-14.42-6.15-28.98-9.72-43.27l-1.74-6.96l-6.06,3.84
			c-38.81,24.6-74.57,33.19-105.59,33.19c-53.13,0-92.36-25.2-109.17-38.33c35.58-136.04,95.76-246.73,112.49-276.01
			c11.1,19.39,41.3,74.51,70.57,148.68l3.54,8.97l5.52-7.9c9.8-14.01,17.58-29.47,23.13-45.95l0.61-1.82l-0.72-1.78
			c-48.77-120.52-97.75-201.51-98.24-202.31L-568.89-1441.88L-568.89-1441.88z M-761.84-798.81
			c5.48-163.17,56.36-321.59,99.18-427.78c40.18-99.65,80.62-172.33,93.77-195.1c13,22.48,52.61,93.66,92.33,191.5
			c-4.1,11.74-9.4,22.91-15.82,33.33c-35.75-88.49-71.72-147.98-72.09-148.59l-4.43-7.28l-4.42,7.28
			c-0.77,1.26-77.3,128.2-118.93,289.63l-0.83,3.21l2.57,2.1c15.99,13.06,59,42.82,118.33,42.82c31.05,0,66.57-8.16,105.01-31.13
			c2.58,10.69,4.98,21.48,7.18,32.22c-36.62,20.16-74.26,30.37-111.94,30.37c-20.51,0-40.94-3.03-60.73-9.01
			c-21.72-6.54-42.56-16.44-61.96-29.4l-6.39-4.27l-1.56,7.53c-8.91,42.99-14.29,84.83-15.99,124.39L-761.84-798.81L-761.84-798.81z
			"/>
	</g>
	<g>
		<path class="st4" d="M-428.97-884.52l-0.04-0.98c-3.25-78.38-20.75-163.56-52-253.16l-0.92-2.64l1.89-2.06
			c9.83-10.74,18.54-22.51,25.9-34.99l5.03-8.53l3.39,9.31c52.38,143.79,79.33,279.04,80.11,402l0.13,20.45L-428.97-884.52z
			 M-451.79-1164.46c-5.79,8.79-12.28,17.24-19.29,25.11l-0.19,0.22l0.1,0.28c30.78,88.99,48.1,173.73,51.46,251.87l0,0.1
			l44.35,90.39l-0.08-2.33c-3.71-112.65-29.1-235.64-75.47-365.54l-0.34-0.94L-451.79-1164.46z"/>
		<path d="M-449.22-1185.72l3.03,8.31c52.36,143.73,79.3,278.93,80.08,401.83l0.12,18.27l-62.48-127.34l-0.04-0.88
			c-3.25-78.43-20.76-163.66-52.03-253.31l-0.82-2.36l1.68-1.84c9.85-10.76,18.59-22.56,25.97-35.07L-449.22-1185.72
			 M-374.78-794.18l-0.15-4.65c-3.71-112.7-29.11-235.74-75.5-365.7l-0.67-1.89l-1.1,1.67c-5.78,8.77-12.25,17.2-19.24,25.06
			l-0.39,0.44l0.19,0.55c30.77,88.94,48.07,173.64,51.44,251.73l0.01,0.21l0.09,0.19l43.28,88.21L-374.78-794.18 M-449-1188.05
			l-5.57,9.44c-7.34,12.44-16.04,24.19-25.84,34.9l-2.09,2.28l1.02,2.92c31.24,89.56,48.73,174.68,51.98,253.02l0.04,1.09
			l64.5,131.46l-0.14-22.64c-0.78-123.02-27.75-258.33-80.14-402.17L-449-1188.05L-449-1188.05z M-375.93-798.79L-419.21-887
			c-3.37-78.2-20.69-162.97-51.49-252.01c7.04-7.92,13.51-16.35,19.33-25.17C-404.97-1034.21-379.64-911.46-375.93-798.79
			L-375.93-798.79z"/>
	</g>
</g>
<circle cx="540" cy="540" r="540"/>
<g>
	<path class="st10" d="M404.48,596.34C452.48,410.18,540,266.26,540,266.26s43.75,71.92,86.34,179.85
		c10.13-14.49,19.09-31.4,25.73-51.11C595.75,255.82,540,164.16,540,164.16S315.01,534.13,312.57,915.84l61.9-126.15
		c2.01-48.56,8.68-96.6,18.24-142.75c17.51,11.71,42.16,25.26,72.54,34.42c20.13,6.08,44.18,10.57,71.27,10.57
		c39.46,0,85.34-9.54,134.86-37.65c-3.33-16.69-7.04-33.14-11.07-49.28C532.37,686.1,432.77,619.45,404.48,596.34z"/>
	<path class="st10" d="M676.02,457.26c-9.35,15.84-19.76,29.41-30.33,40.96c29.89,85.69,55.53,187.41,59.85,291.47l61.9,126.15
		C766.39,751.21,723.93,588.79,676.02,457.26z"/>
</g>
</svg>
